<svg xmlns="http://www.w3.org/2000/svg" width="135" height="79.3" viewBox="0 0 135 79.3">
  <path fill="#fff" d="M22.03 0H7.34C3.29 0 0 3.29 0 7.34v14.69c0 4.06 3.29 7.34 7.34 7.34h14.69c4.06 0 7.34-3.29 7.34-7.34V7.34c0-4.06-3.29-7.34-7.34-7.34m3.67 19.63c0 2.02-1.64 3.68-3.68 3.68H7.34c-2.02 0-3.68-1.64-3.68-3.68V4.95c0-2.02 1.64-3.68 3.68-3.68h14.69c2.02 0 3.68 1.64 3.68 3.68v14.69Z" class="st0"/>
  <path fill="#fff" d="M18.19 16.29c-.23.04-.42.06-.59.06q-.675 0-1.17-.45c-.48-.45-.48-.67-.48-1.13v-3.23h2.82V7.8h-2.82V4.74h-3.91V7.8H9.85v3.74h2.19v3.43c0 1.57.45 2.8 1.36 3.69 1.36 1.33 2.1 1.33 3.6 1.33.34 0 .68-.04 1.03-.11s.64-.17.89-.28l-.2-3.45c-.13.05-.31.1-.53.13Zm24.25-.01c-.23.04-.42.06-.58.06-.45 0-.84-.15-1.17-.44-.33-.3-.48-.67-.48-1.13v-3.22h2.81V7.82h-2.81V4.77h-3.9v3.05h-2.18v3.73h2.18v3.41c0 1.56.45 2.79 1.36 3.68s2.1 1.33 3.59 1.33c.34 0 .68-.04 1.03-.11s.64-.17.88-.28l-.19-3.44c-.13.05-.31.1-.53.13Zm7.74-2.23-2.3-6.24h-4.17l4.45 10.78-2.25 4.94h4.19l6.56-15.72h-4.19zm17.29-5.64c-.83-.56-1.74-.83-2.72-.83s-1.85.25-2.56.75q-.54.375-.93.93V7.82h-3.87v15.72h3.87v-5.19c.27.37.58.67.93.92.7.49 1.56.74 2.56.74 1.5 0 1.89-.28 2.72-.83s1.49-1.31 1.98-2.26.73-1.98.73-3.1c0-1.67-.25-2.15-.73-3.11s-1.14-1.72-1.98-2.28m-1.45 6.77c-.23.43-.53.77-.92 1.02s-.82.38-1.29.38c-.71 0-.9-.13-1.29-.38s-.7-.6-.93-1.02c-.24-.43-.35-.9-.35-1.41s.12-1.01.35-1.44.55-.76.93-1.01c.39-.25.82-.37 1.29-.37s.9.12 1.29.37.7.59.92 1.02c.23.44.34.91.34 1.42s-.11.98-.34 1.41m13.89-6.85c-.88-.51-1.85-.76-2.92-.76q-1.725 0-3.15.81c-1.425.81-1.71 1.29-2.25 2.23s-.83 1.99-.83 3.14.28 2.2.83 3.16 1.32 1.71 2.28 2.26 2.02.83 3.18.83c1.25 0 2.33-.21 3.28-.64s1.64-1.03 2.07-1.8l-3.05-1.87c-.14.28-.44.51-.88.7s-.88.29-1.32.29c-.6 0-1.1-.11-1.52-.34s-.74-.57-.94-1.03c-.06-.13-.11-.29-.16-.44h8.13c.06-.56.1-1.09.1-1.57 0-1.06-.25-2.03-.76-2.9s-1.21-1.55-2.08-2.06m-5.38 3.97c.02-.1.06-.19.1-.28.17-.43.44-.75.8-.96.37-.21.82-.32 1.37-.32q.51 0 .96.18c.45.18.55.3.75.55s.33.52.37.83zm16.42.6c-.6-.25-1.34-.49-2.21-.71-.36-.1-.67-.19-.94-.28s-.49-.18-.64-.29a.5.5 0 0 1-.23-.42c0-.19.1-.36.32-.48.21-.13.48-.19.83-.19.61 0 1.27.11 1.98.34.7.23 1.29.51 1.78.85l1.06-2.81c-.6-.45-1.3-.79-2.1-1.01s-1.66-.33-2.54-.33c-.94 0-1.79.18-2.54.55-.76.37-1.35.86-1.77 1.49s-.62 1.33-.6 2.08c.02.87.25 1.56.7 2.07s.98.87 1.57 1.08 1.33.4 2.21.58q.51.09.93.21c.42.12.49.17.64.28.14.11.21.25.21.44q0 .315-.39.51c-.39.195-.61.19-1.06.19-.73 0-1.44-.1-2.14-.3s-1.33-.51-1.9-.9l-1.09 2.71c.75.51 1.59.88 2.47 1.1.92.23 1.92.35 3 .35.94 0 1.77-.17 2.49-.49s1.29-.79 1.7-1.39.6-1.28.6-2.03c-.02-.83-.25-1.49-.71-2.01-.44-.5-.98-.89-1.6-1.15m11.81-4.62c-.88-.51-1.85-.76-2.92-.76q-1.725 0-3.15.81c-1.425.81-1.71 1.29-2.25 2.23s-.83 1.99-.83 3.14.28 2.2.83 3.16 1.32 1.71 2.28 2.26 2.02.83 3.18.83c1.25 0 2.33-.21 3.28-.64s1.64-1.03 2.07-1.8l-3.05-1.87c-.14.28-.44.51-.88.7s-.88.29-1.32.29c-.6 0-1.1-.11-1.52-.34s-.74-.57-.94-1.03c-.06-.13-.11-.29-.16-.44h8.13c.06-.56.1-1.09.1-1.57 0-1.06-.25-2.03-.76-2.9s-1.21-1.55-2.08-2.06m-5.39 3.97c.02-.1.06-.19.1-.28.17-.43.44-.75.8-.96.37-.21.82-.32 1.37-.32q.51 0 .96.18c.45.18.55.3.75.55s.33.52.37.83zm17.47 3.83c-.13.05-.31.1-.53.13-.23.04-.42.06-.58.06-.45 0-.84-.15-1.17-.44-.33-.3-.48-.67-.48-1.13v-3.22h2.81V7.82h-2.81V4.77h-3.9v3.05h-2.18v3.73h2.18v3.41c0 1.56.45 2.79 1.36 3.68s2.1 1.33 3.59 1.33c.34 0 .68-.04 1.03-.11s.64-.17.88-.28l-.19-3.44Z" class="st0"/>
</svg>